<svg data-v-423bf9ae="" xmlns="http://www.w3.org/2000/svg" viewBox="0 0 244 90" class="iconLeftSlogan"><!----><!----><!----><g data-v-423bf9ae="" id="7711f371-6428-4651-86ec-14f22b80145e" fill="black" transform="matrix(6.01202392578125,0,0,6.01202392578125,107.23445892333984,-17.494993209838867)"><path d="M0.69 12.77Q0.59 12.77 0.53 12.68Q0.46 12.60 0.46 12.49L0.46 12.49Q0.48 12.31 0.55 12.27Q0.62 12.24 0.80 12.24L0.80 12.24Q1.16 12.24 1.32 12.11Q1.47 11.98 1.49 11.82Q1.51 11.65 1.51 11.28L1.51 11.28L1.51 8.08Q1.51 7.71 1.49 7.55Q1.47 7.38 1.32 7.25Q1.16 7.13 0.80 7.13L0.80 7.13Q0.63 7.13 0.55 7.08Q0.46 7.03 0.46 6.85L0.46 6.85Q0.46 6.76 0.52 6.69Q0.57 6.61 0.69 6.59L0.69 6.59Q1.57 6.47 2.20 6.23L2.20 6.23Q2.39 6.16 2.52 6.15L2.52 6.15L2.56 6.15Q2.79 6.15 2.79 6.41L2.79 6.41L2.79 11.28Q2.79 11.65 2.81 11.82Q2.84 11.98 3.00 12.11Q3.15 12.24 3.51 12.24L3.51 12.24L3.60 12.24Q3.71 12.24 3.77 12.28Q3.82 12.32 3.84 12.49L3.84 12.49Q3.84 12.60 3.78 12.68Q3.72 12.77 3.61 12.77L3.61 12.77Q2.80 12.73 2.14 12.73L2.14 12.73Q1.51 12.73 0.69 12.77L0.69 12.77ZM2.07 4.59Q1.68 4.59 1.41 4.35Q1.15 4.10 1.15 3.74L1.15 3.74Q1.15 3.42 1.47 3.16Q1.79 2.91 2.20 2.91L2.20 2.91Q2.55 2.91 2.77 3.16Q3.00 3.40 3.00 3.78L3.00 3.78Q3.00 4.12 2.73 4.35Q2.46 4.59 2.07 4.59L2.07 4.59ZM7.56 12.87Q7.20 12.08 6.54 10.36L6.54 10.36Q6.48 10.22 6.15 9.35Q5.82 8.48 5.53 7.90L5.53 7.90Q5.29 7.35 5.08 7.15Q4.87 6.94 4.47 6.89L4.47 6.89Q4.42 6.87 4.31 6.86Q4.20 6.85 4.17 6.79Q4.14 6.73 4.14 6.59L4.14 6.59Q4.14 6.43 4.24 6.38Q4.33 6.34 4.46 6.34Q4.59 6.33 4.63 6.33L4.63 6.33Q5.49 6.29 5.98 6.57Q6.47 6.86 6.79 7.57L6.79 7.57Q6.80 7.60 7.34 8.92L7.34 8.92Q7.98 10.56 8.26 11.14L8.26 11.14L8.30 11.14L9.69 7.48Q9.76 7.24 9.76 7.14L9.76 7.14Q9.76 6.99 9.62 6.93Q9.48 6.87 9.16 6.87L9.16 6.87L9.07 6.87Q8.96 6.87 8.91 6.83Q8.86 6.79 8.85 6.62L8.85 6.62Q8.85 6.52 8.90 6.43Q8.95 6.34 9.04 6.34L9.04 6.34Q9.84 6.38 10.40 6.38L10.40 6.38Q10.63 6.38 11.27 6.36L11.27 6.36L11.56 6.34Q11.66 6.34 11.72 6.43Q11.77 6.52 11.77 6.62L11.77 6.62Q11.76 6.79 11.70 6.83Q11.65 6.87 11.54 6.87L11.54 6.87Q11.02 6.87 10.74 7.04Q10.46 7.21 10.26 7.70L10.26 7.70Q9.94 8.51 9.06 10.68Q8.18 12.85 8.15 12.87L8.15 12.87L7.56 12.87ZM12.45 12.77Q12.35 12.77 12.29 12.68Q12.22 12.60 12.22 12.49L12.22 12.49Q12.24 12.31 12.31 12.27Q12.38 12.24 12.56 12.24L12.56 12.24Q12.92 12.24 13.08 12.11Q13.23 11.98 13.25 11.82Q13.27 11.65 13.27 11.28L13.27 11.28L13.27 8.08Q13.27 7.71 13.25 7.55Q13.23 7.38 13.08 7.25Q12.92 7.13 12.56 7.13L12.56 7.13Q12.39 7.13 12.31 7.08Q12.22 7.03 12.22 6.85L12.22 6.85Q12.22 6.76 12.28 6.69Q12.33 6.61 12.45 6.59L12.45 6.59Q13.33 6.47 13.96 6.23L13.96 6.23Q14.15 6.16 14.28 6.15L14.28 6.15L14.32 6.15Q14.55 6.15 14.55 6.41L14.55 6.41L14.55 11.28Q14.55 11.65 14.57 11.82Q14.60 11.98 14.76 12.11Q14.91 12.24 15.27 12.24L15.27 12.24L15.36 12.24Q15.47 12.24 15.53 12.28Q15.58 12.32 15.60 12.49L15.60 12.49Q15.60 12.60 15.54 12.68Q15.48 12.77 15.37 12.77L15.37 12.77Q14.56 12.73 13.90 12.73L13.90 12.73Q13.27 12.73 12.45 12.77L12.45 12.77ZM13.83 4.59Q13.44 4.59 13.17 4.35Q12.91 4.10 12.91 3.74L12.91 3.74Q12.91 3.42 13.23 3.16Q13.55 2.91 13.96 2.91L13.96 2.91Q14.31 2.91 14.53 3.16Q14.76 3.40 14.76 3.78L14.76 3.78Q14.76 4.12 14.49 4.35Q14.22 4.59 13.83 4.59L13.83 4.59ZM18.26 12.89Q17.42 12.89 16.90 12.42Q16.38 11.94 16.38 11.23L16.38 11.23Q16.38 10.35 16.97 9.91Q17.56 9.46 18.37 9.33Q19.18 9.20 20.47 9.13L20.47 9.13L20.47 8.02Q20.47 7.34 20.13 6.98Q19.78 6.62 19.03 6.62L19.03 6.62Q18.59 6.62 18.27 6.89Q17.95 7.15 17.95 7.60L17.95 7.60Q17.95 7.83 18.05 7.97Q18.16 8.12 18.28 8.22Q18.40 8.32 18.40 8.33L18.40 8.33Q18.40 8.41 18.22 8.55Q18.05 8.68 17.79 8.68L17.79 8.68Q17.37 8.68 17.13 8.37Q16.88 8.06 16.88 7.64L16.88 7.64Q16.88 6.92 17.54 6.57Q18.19 6.22 19.11 6.22L19.11 6.22Q20.26 6.22 20.98 6.65Q21.70 7.08 21.70 8.26L21.70 8.26L21.70 11.52Q21.71 11.82 21.88 12.08Q22.05 12.35 22.43 12.35L22.43 12.35Q22.54 12.35 22.59 12.39Q22.64 12.43 22.64 12.57L22.64 12.57Q22.64 12.74 22.38 12.82Q22.12 12.89 21.87 12.89L21.87 12.89Q21.34 12.89 20.93 12.59Q20.52 12.28 20.47 11.76L20.47 11.76Q20.17 12.31 19.57 12.60Q18.96 12.89 18.26 12.89L18.26 12.89ZM18.70 12.14Q19.18 12.14 19.59 11.90Q19.99 11.66 20.23 11.25Q20.47 10.84 20.47 10.33L20.47 10.33L20.47 9.53Q19.00 9.65 18.40 10.01Q17.79 10.37 17.79 11.19L17.79 11.19Q17.79 12.14 18.70 12.14L18.70 12.14Z"></path></g><!----><g data-v-423bf9ae="" id="869a6521-de5d-4625-86b5-76ae845ff9d1" transform="matrix(2.8125,0,0,2.8125,0,1.0290032625198364)" stroke="none" fill="black"><path d="M0 31.984h32v-32H0v32zm2-30h28v28H2v-28z"></path><path d="M6.439 16.831h8.959l-4.48-7.741zM16.602 13.331h8.959L21.082 5.59zM6.439 26.41h8.959l-4.48-7.741zM16.602 22.91h8.959l-4.479-7.741z"></path></g><!----><g data-v-423bf9ae="" id="2a3a785c-eee2-4163-9f25-c773a4bdacdf" fill="black" transform="matrix(0.38089531660079956,0,0,0.38089531660079956,109.56959533691406,59.20012283325195)"><path d="M6.97 6.75C7.63 6.45 8.22 5.85 8.22 4.66C8.22 3.54 7.48 2.21 5.29 2.21L1.13 2.21L1.13 11.48L5.53 11.48C7.64 11.48 8.69 10.43 8.69 9.04C8.69 7.66 7.76 7 6.97 6.75ZM2.18 3.21L5.40 3.21C6.68 3.21 7.17 3.98 7.17 4.75C7.17 5.88 6.26 6.36 5.29 6.36L2.18 6.36ZM5.64 10.49L2.18 10.49L2.18 7.31L5.53 7.31C7 7.31 7.64 8.09 7.64 8.96C7.64 9.93 6.92 10.49 5.64 10.49ZM21.56 2.21L20.24 2.21L16.31 11.48L17.47 11.48L18.61 8.79L23.20 8.79L24.33 11.48L25.49 11.48ZM19.01 7.83L20.90 3.30L22.79 7.83ZM40.61 2.21L40.61 10.01L34.89 2.21L33.67 2.21L33.67 11.48L34.72 11.48L34.72 3.65L40.45 11.48L41.66 11.48L41.66 2.21ZM58.62 2.21L57.13 2.21L51.98 7.04L51.98 2.21L50.93 2.21L50.93 11.48L51.98 11.48L51.98 8.44L53.90 6.65L57.53 11.48L58.84 11.48L54.67 5.94ZM67.96 2.21L66.91 2.21L66.91 11.48L67.96 11.48ZM84.17 2.21L84.17 10.01L78.44 2.21L77.22 2.21L77.22 11.48L78.27 11.48L78.27 3.65L84 11.48L85.22 11.48L85.22 2.21ZM98.46 2.10C95.68 2.10 93.90 4.21 93.90 6.85C93.90 9.48 95.61 11.59 98.43 11.59C100.11 11.59 101.21 10.74 101.79 9.84L101.79 11.48L102.76 11.48L102.76 6.55L98.41 6.55L98.41 7.50L101.79 7.50C101.79 9.44 100.20 10.57 98.52 10.57C96.26 10.57 94.95 8.93 94.95 6.85C94.95 4.76 96.29 3.12 98.55 3.12C99.96 3.12 100.97 3.74 101.53 4.73L102.68 4.73C101.99 3.18 100.45 2.10 98.46 2.10ZM129.39 2.21L126.13 6.61L122.81 2.21L121.59 2.21L121.59 11.48L122.64 11.48L122.64 3.81L126.13 8.22L129.56 3.81L129.56 11.48L130.61 11.48L130.61 2.21ZM144.03 2.21L142.72 2.21L138.78 11.48L139.94 11.48L141.08 8.79L145.67 8.79L146.80 11.48L147.97 11.48ZM141.48 7.83L143.37 3.30L145.26 7.83ZM160.05 2.21L156.14 2.21L156.14 11.48L160.05 11.48C162.26 11.48 164.30 9.74 164.30 6.85C164.30 3.95 162.26 2.21 160.05 2.21ZM160.01 10.49L157.19 10.49L157.19 3.21L160.01 3.21C161.98 3.21 163.25 4.86 163.25 6.85C163.25 8.83 161.98 10.49 160.01 10.49ZM179.82 3.22L179.82 2.21L173.00 2.21L173.00 11.48L179.82 11.48L179.82 10.47L174.05 10.47L174.05 7.35L179.20 7.35L179.20 6.33L174.05 6.33L174.05 3.22ZM205.31 3.22L205.31 2.21L198.49 2.21L198.49 11.48L205.31 11.48L205.31 10.47L199.54 10.47L199.54 7.35L204.69 7.35L204.69 6.33L199.54 6.33L199.54 3.22ZM218.16 2.21L216.85 2.21L212.91 11.48L214.07 11.48L215.21 8.79L219.80 8.79L220.93 11.48L222.10 11.48ZM215.61 7.83L217.50 3.30L219.39 7.83ZM230.89 4.65C230.89 4.03 231.25 3.08 233.35 3.08C235.05 3.08 235.83 3.82 235.94 4.75L237.02 4.75C236.94 3.36 235.82 2.10 233.35 2.10C231.03 2.10 229.87 3.15 229.87 4.66C229.87 7.84 236.21 6.69 236.21 8.96C236.21 10.05 235.23 10.60 233.66 10.60C232.05 10.60 230.75 10.05 230.68 8.71L229.59 8.71C229.73 10.37 230.85 11.59 233.59 11.59C235.87 11.59 237.26 10.64 237.26 8.92C237.26 5.68 230.89 6.80 230.89 4.65ZM249.49 7.81L253.37 2.21L252.10 2.21L248.96 6.72L245.83 2.21L244.55 2.21L248.44 7.81L248.44 11.48L249.49 11.48ZM260.16 10.05L260.16 11.48L261.52 11.48L261.52 10.05ZM270.00 10.05L270.00 11.48L271.36 11.48L271.36 10.05ZM279.85 10.05L279.85 11.48L281.20 11.48L281.20 10.05Z"></path></g></svg>